<?xml version="1.0"?>
<svg width="640" height="480" xmlns="http://www.w3.org/2000/svg" xmlns:svg="http://www.w3.org/2000/svg">
 <!-- Created with SVG-edit - http://svg-edit.googlecode.com/ -->
 <g>
  <title>Layer 1</title>
  <path d="m112,65c-1.699997,-0.995499 -2.5625,-1 -3.5,-1c-0.885002,0 -1.625,0 -2.485001,0c-0.474998,0 -2.079498,0 -2.670998,0c-0.615501,0 -1.906502,0 -2.576004,0c-0.681496,0 -1.371994,0 -2.767998,0c-0.700836,0 -2.122498,0 -2.853333,0c-0.750832,0 -1.526665,0 -2.332504,0c-0.840828,0 -2.647507,-0.002369 -3.621994,0.000832c-1.021507,0.003357 -2.087296,0.012527 -3.193504,0.052505c-1.144882,0.041374 -2.32547,0.110977 -3.5355,0.232498c-1.242218,0.124748 -3.800797,0.527725 -5.105499,0.821663c-1.327675,0.29911 -2.658302,0.66407 -3.987,1.072502c-1.333473,0.409897 -2.651741,0.863091 -3.950996,1.342499c-1.284782,0.474068 -3.755974,1.470551 -4.933006,1.977333c-1.142918,0.492096 -2.242908,0.989464 -3.299995,1.489502c-1.022854,0.483849 -2.002823,0.969162 -2.940002,1.453499c-0.902748,0.466545 -2.58305,1.385201 -3.360664,1.835999c-0.747635,0.433418 -1.461346,0.866737 -2.142002,1.306503c-0.664639,0.42942 -1.306034,0.86953 -1.925999,1.324501c-0.617413,0.453102 -1.823658,1.416924 -2.418335,1.934334c-0.608192,0.529167 -1.216442,1.093834 -1.820999,1.702499c-0.628525,0.632797 -1.259892,1.318718 -1.893002,2.0625c-0.666138,0.782585 -2.028881,2.550446 -2.727997,3.541328c-0.733448,1.039543 -1.464706,2.142921 -2.187,3.301506c-0.740028,1.187027 -1.460819,2.415573 -2.151001,3.679497c-0.693958,1.270844 -1.970062,3.861023 -2.532665,5.167831c-0.554585,1.288185 -1.050686,2.576042 -1.479,3.858002c-0.418682,1.253136 -0.77235,2.493256 -1.047001,3.713997c-0.266056,1.182526 -0.589226,3.460533 -0.6315,4.542336c-0.040705,1.041626 0.001049,2.05146 0.1185,3.021004c0.114323,0.943726 0.302296,1.856522 0.550499,2.732994c0.244286,0.862633 0.887135,2.505783 1.266003,3.289505c0.377319,0.780518 0.798592,1.537964 1.2435,2.281502c0.446125,0.745567 0.921104,1.477905 1.405499,2.209496c0.487595,0.736427 1.488197,2.217377 1.987,2.973831c0.505226,0.766197 1.012897,1.548737 1.531502,2.346008c0.530396,0.815384 1.07423,1.651825 1.6395,2.507996c0.58268,0.882538 1.825096,2.726349 2.493332,3.688492c0.690327,0.993942 1.411503,2.010025 2.164501,3.043503c0.770584,1.057617 1.569645,2.127853 2.398499,3.205505c0.841751,1.094421 2.599319,3.291641 3.514835,4.385498c0.919155,1.098206 1.855534,2.180374 2.807999,3.237c0.942322,1.045364 1.890041,2.056458 2.844002,3.020996c0.929008,0.939301 2.761066,2.655823 3.662167,3.413177c0.860897,0.723557 1.713451,1.379898 2.560497,1.960495c0.810043,0.555237 1.615501,1.043884 2.416504,1.456497c0.769135,0.39621 2.292953,1.002472 3.045494,1.204498c0.73629,0.197662 1.483917,0.32515 2.238007,0.375c0.76474,0.050568 1.554359,0.022278 2.363998,-0.074997c0.847107,-0.101776 2.656235,-0.510376 3.626663,-0.7995c1.027382,-0.306091 2.094864,-0.677444 3.204002,-1.093506c1.15844,-0.434555 2.351753,-0.918198 3.582001,-1.435501c1.271194,-0.534515 3.907127,-1.69397 5.269669,-2.305832c1.386818,-0.622757 2.78627,-1.260635 4.190994,-1.90799c1.40461,-0.647308 2.798157,-1.296921 4.173004,-1.944c1.350479,-0.63562 3.940323,-1.869263 5.162834,-2.461838c1.168106,-0.566208 2.273064,-1.109009 3.301498,-1.639496c0.957039,-0.493668 1.830116,-0.962006 2.599495,-1.423508c0.684647,-0.410675 1.735367,-1.155197 2.050003,-1.516159c0.253662,-0.291016 0.402199,-0.595123 0.394501,-0.867004c-0.007362,-0.260117 -0.156311,-0.514618 -0.361504,-0.740997c-0.229958,-0.253708 -0.872765,-0.725494 -1.238998,-0.978165c-0.389671,-0.268829 -0.807442,-0.543686 -1.2435,-0.83551c-0.454956,-0.304474 -0.926453,-0.621826 -1.405495,-0.961487c-0.493057,-0.349594 -1.490593,-1.109558 -1.986336,-1.523834c-0.503029,-0.420364 -0.997566,-0.860565 -1.489502,-1.307999c-0.491737,-0.44725 -0.974289,-0.899078 -1.453499,-1.344009c-0.471466,-0.437729 -1.388481,-1.274323 -1.835831,-1.662827c-0.435379,-0.378113 -0.86908,-0.74118 -1.296005,-1.102509c-0.425743,-0.360336 -0.853462,-0.723511 -1.278,-1.102493c-0.434219,-0.387619 -1.318054,-1.233566 -1.768829,-1.701843c-0.468086,-0.486267 -0.937462,-1.001038 -1.414505,-1.53299c-0.486671,-0.542694 -0.974319,-1.098976 -1.468498,-1.659004c-0.496483,-0.562637 -1.493294,-1.679031 -1.994995,-2.221664c-0.494347,-0.534676 -0.985603,-1.052689 -1.468506,-1.554001c-0.46814,-0.485977 -0.923286,-0.950035 -1.360497,-1.391998c-0.414833,-0.419342 -1.171227,-1.176277 -1.507004,-1.511337c-0.308243,-0.307587 -0.591805,-0.589897 -0.856499,-0.846001c-0.2444,-0.236465 -0.47393,-0.45298 -0.694496,-0.647995c-0.207581,-0.183533 -0.61158,-0.506691 -0.813499,-0.649338c-0.198151,-0.139984 -0.399551,-0.269379 -0.600006,-0.395996c-0.199547,-0.126045 -0.400894,-0.24926 -0.599998,-0.378006c-0.20092,-0.129921 -0.602257,-0.411118 -0.7995,-0.568497c-0.198822,-0.158638 -0.389359,-0.324463 -0.568497,-0.4935c-0.171791,-0.162102 -0.327469,-0.320946 -0.460503,-0.475502c-0.118652,-0.137848 -0.288849,-0.371719 -0.305664,-0.466667c-0.012405,-0.070084 0.037804,-0.135376 0.127495,-0.1605c0.132233,-0.037041 0.326851,-0.029564 0.577499,-0.016495c0.316154,0.016487 1.162903,0.096786 1.701172,0.156494c0.611145,0.067795 1.287399,0.154228 2.015999,0.288002c0.781082,0.14341 1.603271,0.332039 2.447998,0.594002c0.881355,0.273323 2.676491,1.039429 3.562836,1.544662c0.905159,0.515961 1.777855,1.107979 2.626495,1.728004c0.837059,0.611565 1.62571,1.2416 2.374504,1.853996c0.705711,0.577164 1.931107,1.604988 2.449333,2.018501c0.448776,0.358093 0.843025,0.657265 1.177498,0.919502c0.287003,0.225014 0.533905,0.420464 0.727501,0.613503c0.172531,0.172035 0.422699,0.546387 0.503166,0.760826c0.085739,0.228485 0.141495,0.4879 0.192001,0.771004c0.055222,0.309555 0.099983,0.650864 0.155998,1.023003c0.061195,0.406555 0.223473,1.329979 0.337669,1.848503c0.122795,0.557587 0.269142,1.147552 0.429001,1.768494c0.167366,0.650101 0.34893,1.324112 0.536995,2.020508c0.193253,0.715607 0.591644,2.19133 0.791168,2.94632c0.20182,0.763672 0.403221,1.535965 0.610504,2.314499c0.209045,0.785141 0.422493,1.57547 0.6465,2.368515c0.225311,0.797638 0.705139,2.396896 0.964165,3.194656c0.258324,0.795593 0.527206,1.579819 0.804001,2.347504c0.270638,0.750626 0.544914,1.475082 0.821999,2.167496c0.264458,0.660858 0.782036,1.85437 1.030502,2.378006c0.227875,0.48024 0.448341,0.912323 0.643501,1.306503c0.175713,0.354904 0.333153,0.672302 0.445496,0.964493c0.098633,0.256531 0.186943,0.706726 0.147003,0.893661c-0.037666,0.176285 -0.136177,0.334839 -0.268501,0.46051c-0.139069,0.132095 -0.320244,0.233902 -0.5205,0.316498c-0.211922,0.087402 -0.690872,0.20314 -0.946503,0.245163c-0.264404,0.043457 -0.546616,0.04071 -1.424995,0.218338c-0.645981,0.13063 -1.69397,0.53653 -2.424004,0.992157c-0.83548,0.521439 -1.255478,0.87735 -1.70533,1.25267c-1.5504,1.293503 -2.091774,1.841568 -2.684006,2.40451c-0.627953,0.596893 -1.282433,1.237549 -1.964996,1.919998c-0.71756,0.717438 -1.463181,1.476929 -2.235001,2.279999c-1.646812,1.713486 -2.504112,2.639023 -3.395996,3.589325c-0.915108,0.975052 -1.848122,1.969055 -2.806503,2.964005c-0.965599,1.002441 -1.939034,2.001648 -2.941498,2.964005c-1.972755,1.893829 -2.988037,2.759521 -3.996002,3.594666c-0.992249,0.822113 -1.995155,1.603745 -3,2.358002c-0.995239,0.74704 -1.997635,1.468658 -3,2.177994c-1.995308,1.411987 -2.998306,2.105087 -3.990669,2.797333c-0.97731,0.681747 -1.93322,1.3461 -2.863495,1.983002c-0.892456,0.611008 -1.741226,1.188782 -2.5485,1.712997c-1.422943,0.924011 -2.042938,1.288498 -2.594666,1.598663c-0.481743,0.270813 -0.908005,0.486679 -1.273502,0.667511l-0.310501,0.145828l-0.258499,0.115829l-0.209499,0.090836" id="svg_26" stroke-width="5" stroke="#ff0000" fill="none"/>
  <path d="m151,154c0.610672,1.600006 1.20871,2.25238 1.979172,2.583328c0.438019,0.188141 1.0327,0.356049 1.783493,0.557999c2.062943,0.554886 3.426758,0.853775 4.978668,1.184006c1.698959,0.361511 3.512436,0.712677 5.404495,1.007996c1.920151,0.299713 3.83876,0.568222 5.719498,0.64801c3.464935,0.147003 5.003113,-0.074631 6.356003,-0.404007c1.234665,-0.300598 2.325851,-0.746887 3.237,-1.306503c0.841187,-0.516647 1.55603,-1.12001 2.067001,-1.801498c0.919571,-1.22644 1.098587,-1.938858 1.220001,-2.581329c0.116394,-0.615875 0.112259,-1.234131 0.025497,-1.8255c-0.085754,-0.584579 -0.251724,-1.151779 -0.469498,-1.690506c-0.426956,-1.056198 -0.71582,-1.532822 -0.986664,-2c-0.265045,-0.457169 -0.54538,-0.89296 -0.835495,-1.309494c-0.284714,-0.408783 -0.578552,-0.800415 -0.880508,-1.1745c-0.588776,-0.729416 -0.896271,-1.068802 -1.199997,-1.402664c-0.300644,-0.330475 -0.606812,-0.651825 -0.919495,-0.964508c-0.312683,-0.312683 -0.632919,-0.620071 -0.964508,-0.919495c-0.674469,-0.609024 -1.035019,-0.902328 -1.397324,-1.20134c-0.364685,-0.30098 -0.733032,-0.598755 -1.096512,-0.899994c-0.360519,-0.298782 -0.716156,-0.594254 -1.051498,-0.899994c-0.646118,-0.589096 -0.932037,-0.89505 -1.199997,-1.200012c-0.518906,-0.590576 -0.976563,-1.205872 -1.451996,-1.799988c-0.727402,-0.908966 -1.264938,-1.50029 -1.817337,-2.079178c-0.542404,-0.568405 -1.317825,-1.370224 -2.042831,-2.054657c-0.63327,-0.597839 -1.43367,-1.22348 -2.278503,-1.394165c-0.682068,-0.137802 -1.821732,-0.082642 -2.488495,-0.063004c-0.711441,0.020966 -1.474762,-0.013626 -2.869339,0.434494c-0.703186,0.225952 -1.390732,0.649033 -2.145004,1.137009c-0.420059,0.271744 -1.344696,0.916382 -2.413162,1.674164c-0.579025,0.41066 -1.176163,0.840637 -1.783493,1.287003c-0.615356,0.452271 -1.229706,0.909439 -1.828506,1.376999c-1.158554,0.904633 -1.703705,1.34079 -2.674667,2.237656c-0.466019,0.43045 -0.905655,0.87384 -1.307999,1.341003c-0.805298,0.935043 -1.510605,1.997101 -1.846497,2.567337c-0.34581,0.587082 -0.673843,1.206665 -0.985504,1.854004c-0.645142,1.339981 -0.93605,2.050095 -1.234665,2.77066c-0.610657,1.473511 -0.904404,2.231018 -1.198669,2.99733c-0.297104,0.773697 -0.587311,1.557938 -0.860992,2.355011c-0.275711,0.802948 -0.540787,1.616135 -0.771011,2.444992c-0.4646,1.672668 -0.639603,2.532822 -0.794662,3.401337c-0.156403,0.875992 -0.276733,1.767944 -0.350998,2.6745c-0.075287,0.919022 -0.113922,1.856888 -0.080994,2.809494c0.067886,1.963989 0.225845,2.972473 0.398666,3.989334c0.174103,1.024414 0.397064,2.039856 0.661499,3.0345c0.259888,0.977509 0.546387,1.922058 0.88649,2.809509c0.630829,1.646027 1.013046,2.353806 1.394669,2.991989c0.35553,0.594559 0.734894,1.121506 1.135498,1.573502c0.375488,0.42366 0.76619,0.792862 1.180511,1.078506c0.76886,0.530075 1.193588,0.678986 1.597321,0.809326c0.392563,0.12674 0.787231,0.228561 1.565338,0.298676c0.748566,0.067459 1.814667,0.042664 2.483337,0.042664c0.977997,0 1.636658,0 3.036667,0c0.741333,0 1.490662,0 2.231995,0c1.063171,0 2.090668,0 2.817337,0c0.806671,0 1.733337,0 2.804001,0c0.577835,0 1.783493,0 2.397339,0c0.611832,0 2.365326,0 2.900833,0c0.992996,0 1.456497,0 2.332489,0c0.828003,0 2.03183,0 2.827499,0c0.783676,0 1.547333,0 2.98317,-0.000504l0.668671,-0.013l0.977997,-0.094498l0.658661,-0.147995" id="svg_27" stroke-width="5" stroke="#ff0000" fill="none"/>
  <path d="m233,109c-1.563995,0.610664 -1.984848,1.477829 -2.167007,2.100166c-0.313873,1.072281 -0.495773,1.552391 -0.913498,2.736c-0.247604,0.701591 -0.524811,1.475929 -0.823502,2.3265c-0.325073,0.925728 -0.678879,1.926567 -1.429321,4.17067c-0.413712,1.237152 -0.838898,2.547592 -1.267502,3.923996c-0.444946,1.428886 -0.887039,2.906876 -1.3125,4.428001c-0.433029,1.548203 -0.873581,3.116104 -1.58667,6.314667c-0.355621,1.595154 -0.653473,3.194336 -0.928497,4.786499c-0.272919,1.579895 -0.513626,3.15033 -0.739502,4.705505c-0.223068,1.535843 -0.424698,3.05246 -0.832001,6.007996c-0.197739,1.434891 -0.398239,2.836838 -0.582001,4.205994c-0.178802,1.332214 -0.344574,2.626282 -0.473999,3.882004c-0.124893,1.211716 -0.26091,2.380127 -0.277328,4.578674c-0.00766,1.024979 0.057068,2.000717 0.166489,2.920502c0.103638,0.87114 0.253387,1.687912 0.445511,2.443497c0.180084,0.708206 0.359726,1.374374 0.888,2.46933c0.232956,0.482864 0.509018,0.902512 0.808502,1.266006c0.28949,0.351349 0.620743,0.660889 0.979492,0.941986c0.370285,0.290131 0.783585,0.561874 1.712006,1.125336c0.516068,0.313202 1.067444,0.634277 1.639496,0.967499c0.583939,0.340149 1.172562,0.679123 1.7565,1.012512c0.569077,0.324905 1.114471,0.636063 2.104004,1.186661c0.425674,0.236847 0.809753,0.447037 1.160995,0.632996c0.323486,0.171265 0.629654,0.327393 0.927002,0.471008c0.29335,0.141693 0.592941,0.281311 1.245331,0.562668c0.363388,0.156723 0.753647,0.318573 1.167007,0.481491c0.429276,0.169189 0.873108,0.335495 1.328995,0.490509c0.458817,0.156021 0.916809,0.315964 1.837326,0.528c0.44249,0.101929 0.879211,0.169067 1.305008,0.218994c0.414307,0.048584 0.819809,0.076508 1.214996,0.093002c0.384857,0.016068 0.759995,0.019989 1.479996,0.021332c0.344833,0.000641 0.678665,0 1.000504,0c0.308838,0 0.603668,0 0.883499,0l0.26384,0l0.246826,0" id="svg_28" stroke-width="5" stroke="#ff0000" fill="none"/>
  <path d="m209,132c2.337326,0.001328 3.112473,-0.001541 3.934662,0.035995c0.815308,0.037231 1.911697,0.15065 2.842667,0.421341c0.686661,0.199661 1.499039,0.521454 2.556,0.875992c0.636307,0.21344 1.340805,0.436386 2.097,0.672012c0.793106,0.247131 1.610962,0.495941 2.439011,0.743988c0.823273,0.246613 1.628143,0.486786 3.130661,0.917343c0.669983,0.191986 1.282166,0.368164 2.352005,0.650665c0.874527,0.230927 1.571854,0.470032 2.776489,0.625504c0.866196,0.111786 1.628677,0.057159 2.52417,0.057159l0.863342,0" id="svg_29" stroke-width="5" stroke="#ff0000" fill="none"/>
  <path stroke="#ff0000" d="m309.436554,144c-1.17984,2.656326 -1.290497,3.410172 -1.389771,4.240997c-0.105591,0.883835 -0.199677,1.800446 -0.288025,2.727005c-0.087189,0.914124 -0.166809,1.794312 -0.28894,3.365326c-0.050964,0.655701 -0.09082,1.246628 -0.127136,1.80751c-0.036621,0.565781 -0.073364,1.171692 -0.117462,1.852493c-0.051239,0.790878 -0.11203,1.726913 -0.291779,4.17334c-0.115173,1.567642 -0.251862,3.340195 -0.408691,5.272491c-0.16626,2.047714 -0.345978,4.165421 -0.543915,6.30751c-0.196167,2.12291 -0.37265,4.183762 -0.835297,7.919998c-0.198608,1.603729 -0.414429,3.017761 -0.634003,4.253998c-0.19104,1.075623 -0.38446,1.998001 -0.57608,2.778c-0.161102,0.655762 -0.307983,1.196503 -0.57785,1.968002c-0.091736,0.262283 -0.15744,0.454834 -0.234955,0.557999c-0.037872,0.0504 -0.084808,0.026703 -0.099762,-0.054001c-0.02478,-0.133911 -0.021606,-0.322662 -0.022858,-0.837341c-0.000824,-0.319992 0.000092,-0.680008 0.004791,-1.080002c0.005188,-0.440002 0.015167,-0.920074 0.033813,-1.439987c0.020111,-0.560104 0.042603,-1.160629 0.140167,-2.480011c0.053192,-0.719376 0.124756,-1.472229 0.204376,-2.252991c0.081909,-0.803253 0.173676,-1.622208 0.271912,-2.451004c0.098785,-0.833206 0.200226,-1.664505 0.417694,-3.296005c0.105347,-0.790405 0.213104,-1.561691 0.32666,-2.314499c0.111053,-0.736526 0.227631,-1.457016 0.355591,-2.161499c0.125641,-0.691864 0.248871,-1.373138 0.569275,-2.690659c0.157349,-0.646988 0.336792,-1.28215 0.535858,-1.904999c0.197235,-0.617218 0.415833,-1.223297 0.661316,-1.815002c0.244141,-0.588409 0.493805,-1.175034 1.127136,-2.279999c0.316803,-0.55275 0.675262,-1.083939 1.052368,-1.60051c0.375366,-0.514191 0.773407,-1.008789 1.187531,-1.48349c0.409149,-0.468994 0.816345,-0.930511 1.693542,-1.749344c0.839233,-0.783432 1.284302,-1.132248 2.167847,-1.8125c0.441498,-0.339905 1.356995,-1.002914 2.301941,-1.6875c0.987427,-0.715378 1.492523,-1.086487 2.016785,-1.447998c1.064728,-0.734207 1.617462,-1.086914 2.188416,-1.416c1.143585,-0.659164 2.350555,-1.204132 2.957581,-1.445999c0.597473,-0.238052 1.775269,-0.643417 2.348602,-0.800003c1.562714,-0.426819 2.48349,-0.576736 3.338776,-0.651321c0.859039,-0.074921 1.316254,-0.067505 2.883575,-0.072006c0.616302,-0.00177 1.996918,0 2.754822,0c0.798676,0 1.634888,0 2.505432,0c0.901642,0 2.7854,0 3.759613,0c0.983917,0 1.965668,0 2.933472,0c0.942047,0 1.846558,0 2.701721,0l0.794037,0" id="svg_30" stroke-width="5" fill="none"/>
  <path d="m364,171c1.825348,0 2.835541,-0.032394 3.6875,0.041672c0.582031,0.050598 1.979309,0.290756 2.627167,0.401169c0.736176,0.125473 1.547913,0.267441 2.424011,0.418488c0.927887,0.159973 1.895691,0.325775 2.891998,0.490509c1.011688,0.167282 3.035461,0.485107 4.026154,0.626495c0.970673,0.138535 1.923859,0.264038 2.860504,0.375c0.919708,0.108963 1.824951,0.204407 2.716492,0.285004c0.877777,0.079346 2.599304,0.199219 3.444183,0.240158c0.832489,0.040344 1.651276,0.067169 2.453979,0.08551c0.784607,0.017929 1.549347,0.026779 2.292023,0.031494c0.718658,0.004562 2.075989,0.006058 2.711975,0.003998c0.612,-0.001984 1.206238,-0.006851 1.788025,-0.031494c0.576294,-0.024414 1.153076,-0.066513 1.733978,-0.139496c0.595337,-0.074799 1.844421,-0.319092 2.505524,-0.492844c0.687103,-0.180573 1.383392,-0.395462 2.080475,-0.632996c0.695984,-0.237167 1.384399,-0.469406 2.64801,-1.021332c1.119568,-0.488998 1.604797,-0.719254 2.369507,-1.228668c0.944763,-0.629364 1.417511,-1.134979 2.160004,-1.874161c0.536865,-0.534454 1.099335,-1.09935 1.682983,-1.683014c0.895477,-0.895508 1.50235,-1.489014 2.084839,-2.106155c0.582947,-0.61763 1.145905,-1.259506 1.644012,-1.956009c0.502502,-0.702652 0.935089,-1.456177 1.355988,-2.207993c0.413696,-0.738907 1.007538,-1.805176 1.401672,-2.459167c0.364746,-0.60524 0.996979,-1.333618 1.294678,-2.351837c0.258636,-0.884567 0.121155,-1.740494 -0.332336,-2.639664c-0.368774,-0.731201 -1.055817,-1.269867 -1.764008,-1.835999c-0.809723,-0.647293 -1.387695,-1.345337 -1.789337,-1.838669c-0.597565,-0.733994 -1.174561,-1.392563 -1.832001,-1.849335c-0.713501,-0.495712 -1.670532,-0.97966 -2.422668,-1.421326c-0.84552,-0.49649 -1.290039,-0.766113 -2.20166,-1.338333c-0.463898,-0.291183 -1.823212,-1.189316 -2.258331,-1.48967c-0.851379,-0.587692 -1.261383,-0.88504 -2.080841,-1.444168c-0.401672,-0.274063 -1.598389,-1.046341 -2.40451,-1.5c-0.794128,-0.446915 -1.198212,-0.649979 -2,-1.055832c-1.19754,-0.606201 -1.998199,-1.006607 -2.820831,-1.359665c-0.41214,-0.17688 -1.249359,-0.540375 -2.600494,-0.798676c-0.923462,-0.176544 -1.40329,-0.186905 -2.353333,-0.221664c-0.940857,-0.034424 -1.858734,-0.029678 -2.73999,-0.018661c-0.849487,0.01062 -1.680756,0.02832 -2.484009,0.167999c-1.213806,0.21106 -2.012909,0.531769 -2.822174,0.89183c-0.419006,0.186432 -1.270477,0.614731 -2.600494,1.358994c-0.464783,0.260086 -1.40509,0.812668 -1.878662,1.099335c-0.4758,0.28801 -1.421997,0.871414 -2.333344,1.479172c-0.884583,0.58989 -1.306488,0.887314 -2.104156,1.479172c-0.74939,0.55603 -1.739899,1.341949 -2.293152,1.839493c-0.518341,0.466125 -1.020233,0.950867 -1.936005,2.181335c-0.265411,0.356598 -0.78949,1.164825 -1.058685,1.597336c-0.556549,0.894211 -0.834991,1.351654 -1.608002,2.735992c-0.489594,0.87677 -0.713348,1.30751 -1.145813,2.145844c-0.420105,0.814407 -1.020844,2.020828 -1.220856,2.420822c-0.399994,0.799988 -0.799988,1.600021 -1.199982,2.400009c-0.200012,0.399994 -0.807159,1.596191 -1.19101,2.395493c-0.374664,0.780197 -0.750854,1.529297 -1.075653,2.637833c-0.197327,0.673477 -0.305847,1.666122 -0.324341,2.319336c-0.038696,1.368317 -0.009003,2.104507 -0.009003,2.868164c0,0.783676 0,1.979172 0,2.777832c0,0.79068 -0.000122,1.565338 0,2.31601c0.000183,1.064163 -0.000153,2.072617 0.071991,2.746658c0.07608,0.710785 0.348358,1.889099 0.646851,2.748505c0.319458,0.919769 0.51593,1.386261 0.969147,2.307495c0.456238,0.927383 0.990753,1.799377 1.264679,2.221008c0.537109,0.826721 1.094696,1.599976 1.363342,1.974991c0.762878,1.064941 1.213959,1.742142 1.704834,2.345001c0.717499,0.881195 1.612946,1.634155 2.298004,2.093506c0.35907,0.240768 1.144073,0.700485 1.969147,1.217499c0.884735,0.554398 1.804962,1.202667 2.291687,1.554001c0.510651,0.368607 1.044281,0.761429 1.610992,1.169998c0.598572,0.431534 1.228912,0.892471 2.64267,1.839996c0.769653,0.515823 1.589081,1.03891 2.452484,1.563004c0.889862,0.540161 1.812775,1.072296 2.767517,1.581009c0.963654,0.513443 1.932617,1.032898 3.946655,1.855988c0.990082,0.404617 1.992859,0.73761 2.990997,1.029007c0.98349,0.287125 1.964752,0.525024 2.937012,0.722992c0.955261,0.194519 1.897888,0.366455 3.738647,0.581345c0.888885,0.103775 1.762268,0.169296 2.619019,0.218994c0.841949,0.048843 1.672577,0.076599 2.492981,0.093002c0.812286,0.016235 1.618683,0.019989 3.221344,0.021332c0.799347,0.000671 1.594666,0 2.381989,0c0.77533,0 1.534668,0 2.274017,0c0.715332,0 1.402649,0.000183 2.677338,0c0.580475,-0.000092 1.123993,0.000366 1.633484,-0.004501c0.478546,-0.004578 0.929016,-0.016327 1.354492,-0.031494l0.403503,-0.021164l0.384521,-0.028168" id="svg_31" stroke-linecap="null" stroke-linejoin="null" stroke-dasharray="null" stroke-width="5" stroke="#ff0000" fill="none"/>
  <path d="m448,196c0,-2.053329 -0.000031,-3.020828 0,-3.699173c0.000092,-1.258987 0.003113,-2.103851 0.036011,-2.731491c0.0401,-0.764542 0.113281,-1.73793 0.259979,-2.979996c0.086914,-0.735794 0.212524,-1.550476 0.39151,-2.443512c0.197113,-0.983429 0.448761,-2.056412 0.796509,-3.208496c0.791504,-2.622162 1.375397,-4.056503 1.994659,-5.585327c0.652466,-1.610855 1.372437,-3.271469 2.125488,-4.977005c0.768188,-1.739868 1.562988,-3.490143 2.350525,-5.246994c1.550537,-3.459 2.285461,-5.138565 2.983978,-6.777344c0.677002,-1.588318 1.316315,-3.1297 1.915497,-4.62149c0.575287,-1.432343 1.113525,-2.807327 1.600525,-4.126511c0.896851,-2.429352 1.266296,-3.549133 1.601318,-4.599991c0.313202,-0.982346 0.586029,-1.906006 0.819,-2.773499c0.217194,-0.808685 0.403381,-1.566727 0.549011,-2.278503c0.261963,-1.280197 0.338898,-1.863571 0.405334,-2.406662c0.061859,-0.505692 0.102905,-0.978394 0.128998,-1.419006c0.024292,-0.410126 0.035095,-0.792633 0.039001,-1.149002c0.00705,-0.642639 0.002655,-0.932831 0.002655,-1.203995c0,-0.253174 0,-0.489334 0,-0.709503l0,-0.20517l0,-0.191162l0,-0.178162" id="svg_32" stroke-linecap="null" stroke-linejoin="null" stroke-dasharray="null" stroke-width="5" stroke="#ff0000" fill="none"/>
  <path d="m459,157c1.5,4.666672 1.990234,5.97023 2.557343,7.449341c0.619049,1.614639 1.279999,3.319168 1.963501,5.071487c0.685852,1.758362 1.360199,3.478516 2.008484,5.116501c1.133575,2.864151 1.595032,4.013779 1.993347,4.977341c0.334351,0.808838 0.624054,1.486389 0.893982,2.052002c0.235138,0.492676 0.467499,0.929764 0.71402,1.332001c0.518311,0.845734 0.853882,1.309235 1.207977,1.825333c0.379852,0.553635 0.784149,1.134583 1.203003,1.738495c0.429138,0.618744 0.864227,1.244141 1.292999,1.873505c0.836365,1.227692 1.225189,1.818512 1.590668,2.390656c0.350037,0.547958 0.675873,1.076981 0.97052,1.590012c0.279785,0.487167 0.53598,0.954117 0.745483,1.409988c0.381409,0.829941 0.503387,1.2276 0.602661,1.601334c0.093231,0.350983 0.154694,0.688477 0.193512,1.009506c0.036835,0.304459 0.049011,0.596329 0.058502,0.874496l0.003998,0.521332l-0.010681,0.898666" id="svg_33" stroke-linecap="null" stroke-linejoin="null" stroke-dasharray="null" stroke-width="5" stroke="#ff0000" fill="none"/>
  <path d="m464,168c2.870819,-1.985336 3.472504,-2.337463 4.125824,-2.710663c0.686615,-0.392212 1.394501,-0.790268 2.107513,-1.188004c0.701965,-0.391586 1.378845,-0.767471 2.600006,-1.434662c0.967072,-0.528366 1.730286,-0.892487 2.255981,-1.26001c0.942047,-0.658585 1.379242,-1.45723 1.880005,-1.922668c0.731903,-0.680267 1.551758,-0.96254 2.347992,-1.282654c0.996307,-0.400558 1.657013,-0.674347 2.516022,-1.20134c0.743713,-0.456253 1.298706,-0.769821 2.50531,-0.916c0.780518,-0.094559 1.633026,-0.09584 2.496002,-0.167999c0.833191,-0.069672 1.951996,-0.264236 2.623688,-0.416c0.633606,-0.143173 1.841309,-0.378494 2.720337,-0.464005l0.806976,-0.031494" id="svg_34" stroke-linecap="null" stroke-linejoin="null" stroke-dasharray="null" stroke-width="5" stroke="#ff0000" fill="none"/>
  <path d="m525,143c-4.166687,5.166672 -5.086365,6.85701 -6.089355,8.807999c-1.096558,2.132935 -2.225586,4.40593 -3.368958,6.754501c-1.1474,2.356781 -2.255554,4.670349 -3.278992,6.889496c-1.785248,3.871017 -2.453674,5.44194 -2.988037,6.768005c-0.445892,1.106552 -0.787567,2.043274 -1.045502,2.842499c-0.222046,0.688019 -0.386841,1.312622 -0.550476,1.897507c-0.338165,1.208694 -0.56073,1.890945 -0.814667,2.631989c-0.271179,0.791382 -0.567627,1.616531 -0.864014,2.470505c-0.301025,0.867355 -0.603516,1.735947 -0.864014,2.605499c-0.496521,1.657425 -0.665009,2.443405 -0.791992,3.192001c-0.121002,0.713501 -0.193512,1.40593 -0.218994,2.077499c-0.024872,0.655441 -0.009857,1.30307 0.050995,1.942505c0.122772,1.290421 0.257782,1.94278 0.397339,2.599991c0.140411,0.66127 0.308655,1.316788 0.51001,1.957504c0.198853,0.632782 0.417847,1.248322 0.690002,1.822495c0.518524,1.093964 0.856018,1.563934 1.195984,1.996002c0.32785,0.416641 0.683167,0.788269 1.051514,1.119003c0.356201,0.319839 0.723724,0.603348 1.096497,0.848999c0.702911,0.463196 1.058289,0.638611 1.397339,0.804001c0.32547,0.158768 0.647125,0.295242 0.964478,0.4095c0.308167,0.110947 0.61441,0.204437 0.919525,0.274506c0.5979,0.137299 0.900574,0.170258 1.198669,0.202667c0.293274,0.031876 0.581177,0.051636 0.860962,0.064499c0.269592,0.01239 0.527344,0.017548 0.770996,0.019501c0.437378,0.00351 0.627869,0.001328 0.801331,0.001328c0.159546,0 1.137024,0.027191 1.805359,-0.010666c0.7677,-0.043488 1.759521,-0.355499 2.506836,-0.808167l0.635498,-0.724335l0.375,-0.739502l0.200012,-0.574661" id="svg_35" stroke-linecap="null" stroke-linejoin="null" stroke-dasharray="null" stroke-width="5" stroke="#ff0000" fill="none"/>
  <path d="m506,164c2.619995,-0.283997 3.063324,-0.352661 4,-0.5c0.936676,-0.147339 1.373016,-0.274597 2.785339,-0.41333c0.79541,-0.07814 1.407349,-0.032715 2.714661,0.080002c0.593323,0.051163 1.263916,0.117798 2.000977,0.185989c0.790955,0.073181 1.623901,0.149063 2.487,0.222c0.88092,0.074432 1.767273,0.152786 3.512024,0.258667c0.834534,0.050644 1.63855,0.084366 2.410522,0.109512c0.73877,0.024063 1.443665,0.036331 2.747314,0.052658l0.596802,0.003174" id="svg_36" stroke-linecap="null" stroke-linejoin="null" stroke-dasharray="null" stroke-width="5" stroke="#ff0000" fill="none"/>
  <path d="m84,235c-3.666664,-1.333328 -4.642105,-1.769333 -5.745331,-2.272003c-1.202492,-0.547897 -2.470238,-1.131607 -3.775505,-1.727997c-1.309395,-0.598282 -2.590714,-1.185303 -3.820496,-1.727997c-2.153557,-0.950333 -3.022842,-1.341858 -3.786667,-1.550674c-0.63205,-0.172791 -1.232208,-0.203812 -1.684502,0.0495c-0.497559,0.278656 -0.909332,0.900299 -1.279499,1.714508c-1.041889,2.291718 -1.450375,3.93248 -2.009335,5.779999c-0.62207,2.056107 -1.246807,4.299484 -1.856998,6.692993c-0.635914,2.494431 -1.250996,5.063873 -1.767002,7.682999c-1.01997,5.177124 -1.320408,7.703583 -1.606667,10.140015c-0.275486,2.344757 -0.482994,4.597595 -0.730499,6.739502c-0.234585,2.030121 -0.445316,3.951202 -0.865501,5.704498c-0.754436,3.148041 -1.438026,4.476166 -2.221333,5.598663c-0.749714,1.074371 -1.688286,1.976715 -2.746498,2.675995c-1.069164,0.706543 -2.287846,1.248688 -3.601501,1.596008c-2.796741,0.739441 -4.370697,0.773834 -5.965332,0.805328c-1.6269,0.032104 -3.272587,-0.065399 -4.891502,-0.317993c-1.599968,-0.249634 -3.166542,-0.598633 -4.576498,-1.218018c-2.66387,-1.170197 -3.702372,-2.170715 -4.585335,-3.182648c-0.871096,-0.998322 -1.511999,-2.161346 -2.108999,-3.328522l-0.507,-1.202148l-0.429001,-1.220184l-0.362999,-1.221161" id="svg_37" stroke-linecap="null" stroke-linejoin="null" stroke-dasharray="null" stroke-width="5" stroke="#ff0000" fill="none"/>
  <path d="m116,263c-7.166664,-0.833344 -8.834892,-0.664063 -10.697334,-0.406677c-2.012489,0.278137 -4.116478,0.616119 -6.261002,0.990021c-2.138191,0.372803 -4.214691,0.75708 -6.170998,1.169983c-3.37796,0.712952 -4.699089,1.054657 -5.767998,1.398682c-0.871422,0.280457 -1.566971,0.564209 -2.061005,0.910492c-0.413673,0.289948 -0.710655,0.650024 -0.890999,1.045502c-0.392822,0.86142 -0.478096,1.418823 -0.627998,2.001343c-0.160263,0.622803 -0.308235,1.28302 -0.418503,1.973999c-0.112747,0.706573 -0.202209,1.428833 -0.193497,2.153992c0.017204,1.432007 0.192024,2.126862 0.402664,2.786652c0.208313,0.652496 0.493454,1.272552 0.832504,1.851013c0.334908,0.571381 0.716301,1.106476 1.147499,1.580994c0.832512,0.916168 1.318398,1.270752 1.78933,1.600006c0.456711,0.319305 0.926346,0.589935 1.3965,0.819c0.4543,0.221344 0.906616,0.40564 1.351501,0.549011c0.828537,0.267029 1.225266,0.342773 1.604004,0.401337c0.367584,0.056824 0.736206,0.082825 1.106995,0.070496c0.381622,-0.012665 0.780991,-0.061737 1.197006,-0.15451c0.935875,-0.20871 1.450134,-0.398529 2.002663,-0.601318c0.590446,-0.216705 1.206482,-0.471619 1.842003,-0.765015c0.663429,-0.306274 1.342819,-0.645447 2.021996,-1.035004c1.412262,-0.810059 2.100517,-1.295197 2.789337,-1.794678c0.694016,-0.503235 1.369293,-1.034729 2.021996,-1.586975c0.645996,-0.54657 1.266045,-1.103027 1.842003,-1.677002c1.096764,-1.092957 1.564186,-1.652405 1.99733,-2.196014c0.41526,-0.521179 0.793198,-1.040009 1.119003,-1.564484c0.620834,-0.99939 0.883408,-1.504974 1.291664,-2.520844c0.395096,-0.983093 0.658592,-1.966034 0.770836,-2.4375c0.211304,-0.887573 0.395836,-2.0625 0.505333,-2.986511l0.046501,-0.707977" id="svg_38" stroke-linecap="null" stroke-linejoin="null" stroke-dasharray="null" stroke-width="5" stroke="#ff0000" fill="none"/>
  <path d="m133,264c-2.833328,3.833344 -3.538269,5.089142 -4.325333,6.534668c-0.862259,1.583618 -1.764145,3.269226 -2.695503,5.006989c-0.936646,1.747589 -1.851166,3.464508 -2.740494,5.097015c-1.561783,2.866913 -2.215546,4.013641 -2.781334,4.963989c-0.465919,0.782593 -0.856743,1.404572 -1.186501,1.876495c-0.249748,0.357422 -0.435486,0.618256 -0.601501,0.751495c-0.154449,0.123962 -0.214142,0.081055 -0.204002,0.016022c0.018761,-0.120361 0.113052,-0.289063 0.243004,-0.517517c0.17012,-0.299072 0.401268,-0.664337 0.693001,-1.102478c0.754868,-1.133698 1.245148,-1.822632 1.79866,-2.589355c0.604439,-0.83728 1.265656,-1.72464 1.987503,-2.641479c0.751228,-0.954163 1.539711,-1.924225 2.392502,-2.866516c1.716499,-1.896667 2.650192,-2.756409 3.58667,-3.582672c0.922241,-0.81369 1.864456,-1.571716 2.8125,-2.279999c0.925644,-0.691528 1.84906,-1.334259 2.767502,-1.919983c1.736237,-1.107269 2.583786,-1.569977 3.398666,-2.002686c0.782776,-0.415649 1.552505,-0.789581 2.312988,-1.118988c0.741119,-0.321045 1.479782,-0.609253 2.223007,-0.848999c1.475052,-0.4758 2.238831,-0.645203 3.014664,-0.801331c0.794647,-0.159912 1.62381,-0.284882 2.491501,-0.370514c0.909805,-0.089783 1.8741,-0.143951 2.8965,-0.145477c2.24971,-0.003357 3.486771,0.095612 4.782669,0.197327c1.33754,0.10498 2.694336,0.243347 4.050003,0.406494c1.337708,0.16098 2.635727,0.33606 3.869995,0.541504c2.217957,0.369171 3.158249,0.581329 3.982666,0.797333c0.725708,0.190155 1.353302,0.390198 1.876495,0.619507c0.453674,0.198822 0.840042,0.40625 1.111511,0.66449c0.457794,0.435486 0.558533,0.730957 0.610657,1.003998c0.053024,0.27774 0.027161,0.582855 -0.055496,0.894012c-0.090591,0.341034 -0.249451,0.700348 -0.460495,1.074005c-0.486588,0.861572 -0.833435,1.309326 -1.188004,1.793304c-0.370605,0.505829 -0.76413,1.015625 -1.164001,1.528503c-0.397461,0.509796 -0.791626,1.003906 -1.164001,1.483521c-0.673477,0.867462 -0.952896,1.249115 -1.194672,1.594666c-0.215271,0.307678 -0.398895,0.586975 -0.557999,0.838501c-0.142075,0.224609 -0.263794,0.429932 -0.377991,0.613495c-0.202621,0.325714 -0.3022,0.470337 -0.401337,0.598663c-0.088181,0.114166 -0.394592,0.279846 -0.14267,-0.337341c0.391769,-0.959808 0.690506,-1.312653 1.283997,-2.14798c0.693649,-0.976288 1.134445,-1.470978 1.597336,-1.990692c0.483902,-0.543274 1.005936,-1.088776 1.561508,-1.631989c0.568344,-0.555695 1.161331,-1.105927 1.786499,-1.631989c1.256989,-1.057678 1.924789,-1.533325 2.594666,-1.99469c0.665939,-0.458649 1.345612,-0.888519 2.035492,-1.289978c0.684921,-0.39856 1.375443,-0.776886 2.080505,-1.110016c2.075012,-0.980408 2.791275,-1.207001 3.480667,-1.454498c0.67337,-0.24173 1.333725,-0.45932 1.973999,-0.661499c0.614426,-0.194031 2.27713,-0.691345 3.203995,-0.970673c0.415741,-0.125305 1.528046,-0.464752 2.220001,-0.600006c1.034576,-0.20224 1.768341,-0.263977 2.858673,-0.23999c0.692993,0.015228 1.941223,0.126709 2.578003,0.494995c0.845108,0.4888 1.045959,1.302887 1.080658,2.14502c0.041275,1.001801 -0.013931,1.89975 -0.111664,2.589325c-0.174469,1.23114 -0.315323,1.691895 -0.600006,2.686493c-0.15062,0.526245 -0.500107,1.599945 -0.694656,2.136658c-0.570892,1.574951 -0.785828,2.060394 -1.19101,2.995514c-0.197479,0.45578 -0.608429,1.352356 -1,2.273346c-0.408844,0.961609 -0.802216,2.001831 -1,2.546326c-0.202271,0.556824 -0.600891,1.706696 -0.799988,2.294678c-0.200912,0.593353 -0.60379,1.789734 -0.997345,2.989655c-0.195541,0.596222 -0.394943,1.186707 -0.730667,2.365326c-0.164337,0.576965 -0.352921,1.141327 -0.62883,2.814178c-0.087631,0.531372 -0.171539,1.564148 -0.180664,2.059326c-0.017395,0.943512 0.104172,2.229156 0.224167,2.987823l0.255005,0.97052l0.220001,0.523651" id="svg_39" stroke-linecap="null" stroke-linejoin="null" stroke-dasharray="null" stroke-width="5" stroke="#ff0000" fill="none"/>
  <path d="m218,275c2.005341,1.304504 2.800217,1.556427 3.666672,2.166656c0.6091,0.428986 1.296402,1.001831 1.653168,1.123505c1.47612,0.503448 2.215179,0.47876 3.014832,0.536499c0.879791,0.063538 1.829285,0.089813 2.832001,0.089996c1.042709,0.000214 2.112152,-0.024689 3.192001,-0.089996c2.143372,-0.129669 3.178131,-0.257111 4.18132,-0.401337c0.976913,-0.140472 1.923523,-0.313873 2.835007,-0.52948c0.888672,-0.210205 1.749451,-0.449738 2.565002,-0.754517c1.579971,-0.590424 2.303268,-0.990356 2.99733,-1.394653c0.677383,-0.394592 1.309921,-0.821838 1.895996,-1.267517c0.563141,-0.428253 1.080627,-0.86441 1.536011,-1.3125c0.822067,-0.808929 1.132996,-1.216156 1.402664,-1.594666c0.246994,-0.34668 0.451447,-0.682404 0.602997,-1.009491c0.271088,-0.585083 0.666672,-1.889008 0.541672,-2.541656c-0.207413,-1.082916 -0.979034,-1.638794 -1.5,-2.020844c-0.573029,-0.420227 -1.582947,-1.000732 -2.302002,-1.402679c-0.750244,-0.419403 -1.53833,-0.849274 -2.31601,-1.367981c-0.812775,-0.542084 -1.601105,-1.194458 -1.998657,-1.534668c-0.804993,-0.688873 -1.187912,-1.058441 -2,-1.726685c-0.788513,-0.648865 -1.589447,-1.221497 -2.432007,-1.685333c-0.423569,-0.233185 -1.333527,-0.633636 -1.82399,-0.794647c-1.590637,-0.522217 -2.193558,-0.611938 -2.802002,-0.717346c-1.23761,-0.214417 -1.864761,-0.277527 -2.484009,-0.294647c-1.757492,-0.048584 -2.305328,0.039734 -3.281998,0.304474c-0.464188,0.125824 -1.342651,0.470459 -2.08667,0.994171c-1.125534,0.792267 -1.433151,1.172699 -2.042664,1.918671c-0.632721,0.774384 -0.931534,1.204773 -1.679993,2.640015c-0.261368,0.501221 -0.5009,1.027466 -0.909332,2.127991c-0.206146,0.55545 -0.407135,1.11557 -0.685333,2.256012c-0.270462,1.108734 -0.411438,2.200348 -0.457672,2.738983c-0.093018,1.083771 -0.097763,1.6409 -0.105331,2.210663c-0.024338,1.832855 -0.009796,2.497162 -0.007675,3.18634c0.002182,0.709167 0.006882,1.43335 0.019501,2.167511c0.012695,0.739227 0.047974,2.213531 0.145844,3.645813c0.047195,0.690765 0.113739,1.362305 0.199493,2.014496c0.083771,0.637177 0.306885,1.8638 0.452667,2.452667c0.143738,0.580597 0.709732,2.250854 0.953171,2.778168c0.482117,1.044342 0.777481,1.533752 1.085327,2.005341c0.60553,0.927582 1.286697,1.771271 2.026672,2.511993c0.719955,0.720673 1.113098,1.032471 1.863327,1.661682c0.367264,0.308014 1.429932,1.210968 2.109009,1.80899c0.683578,0.60199 1.02092,0.926239 1.798325,1.5c1.278976,0.943939 1.801788,1.206268 2.334839,1.490997c0.556229,0.297119 1.782028,0.848846 2.452667,1.094666c0.698746,0.256104 2.221634,0.693817 3.042664,0.87085c0.844421,0.182068 1.710785,0.32724 2.584503,0.439484c0.86676,0.111359 1.720657,0.187653 2.548492,0.223511c0.789734,0.03421 2.218002,0.000946 2.831833,-0.084656c0.55722,-0.077698 1.509003,-0.385498 1.925339,-0.580688l0.750671,-0.496338" id="svg_40" stroke-linecap="null" stroke-linejoin="null" stroke-dasharray="null" stroke-width="5" stroke="#ff0000" fill="none"/>
  <path d="m315,269c-0.963989,1.825348 -0.90741,2.849091 -1.083344,3.604156c-0.170685,0.732513 -0.801361,1.826019 -1.057983,2.311829c-0.285919,0.54129 -0.604095,1.131256 -0.942017,1.771515c-0.36084,0.683716 -0.740875,1.407898 -1.121979,2.176514c-0.807922,1.629486 -1.199005,2.498138 -1.593353,3.389313c-0.401398,0.907166 -0.79364,1.832092 -1.180481,2.767517c-0.387878,0.937897 -0.766113,1.87735 -1.135498,2.8125c-0.72345,1.831451 -1.065002,2.723358 -1.400024,3.597321c-0.329315,0.85907 -0.650696,1.707489 -0.964478,2.548492c-0.311554,0.834991 -0.618652,1.668182 -0.919525,2.50351c-0.605957,1.682312 -0.901428,2.53775 -1.199982,3.394653c-0.297119,0.852753 -0.588928,1.695282 -0.880493,2.518524c-0.283142,0.799438 -0.556641,1.568329 -0.83551,2.293488c-0.505951,1.315643 -0.756683,1.883575 -0.996002,2.389343c-0.212769,0.449677 -0.413391,0.835388 -0.605988,1.150482c-0.158234,0.258881 -0.480133,0.54422 -0.602844,0.134674c-0.197357,-0.6586 0.218628,-1.127686 0.494171,-2.255829c0.352417,-1.442871 0.566345,-2.28009 0.798676,-3.186676c0.247528,-0.96579 0.514099,-1.978973 0.809998,-3.025482c0.303955,-1.074921 0.623779,-2.16568 0.98999,-3.250519c0.727966,-2.156403 1.154755,-3.186493 1.600006,-4.181335c0.43515,-0.97226 0.902405,-1.901978 1.410004,-2.776489c0.493103,-0.849548 1.009521,-1.654633 1.589996,-2.37149c1.104004,-1.363342 1.752777,-1.909332 2.403992,-2.401337c0.642792,-0.485626 1.336761,-0.900085 2.068512,-1.248016c0.744781,-0.354126 1.541138,-0.651733 2.383484,-0.888c1.789124,-0.501862 2.775391,-0.646301 3.789337,-0.806671c1.038452,-0.164246 2.096527,-0.296478 3.160492,-0.409485c1.057434,-0.112305 2.099854,-0.203064 3.115509,-0.274506c1.90448,-0.133972 2.775421,-0.172302 3.588013,-0.198669c0.756134,-0.024536 1.459015,-0.032745 2.108978,-0.005981c0.600861,0.02475 1.157867,0.065186 1.658997,0.173981c0.894592,0.194214 1.274048,0.388763 1.604004,0.600006c0.314789,0.201538 0.5849,0.448578 0.7995,0.726013c0.211182,0.27301 0.380341,0.578674 0.484497,0.905975c0.211151,0.663513 0.209351,1.032654 0.20401,1.400024c-0.005524,0.381744 -0.110443,1.197418 -0.313324,2.08667c-0.11026,0.483307 -0.549988,2.088562 -0.714661,2.67865c-0.170959,0.612579 -0.349213,1.243103 -0.535522,1.886993c-0.380676,1.315552 -0.576477,1.978241 -0.979156,3.291687c-0.197876,0.645447 -0.397736,1.278961 -0.789337,2.509338c-0.189362,0.594971 -0.379181,1.173218 -0.725342,2.285309c-0.322906,1.037354 -0.6091,1.991577 -0.827972,2.84668c-0.184662,0.721527 -0.291351,1.863739 0.143982,1.691986c0.544952,-0.214996 1.404846,-1.376892 1.834656,-1.794647c0.478607,-0.46521 1.013214,-0.968811 1.614014,-1.497009c0.649506,-0.571014 1.360992,-1.169861 2.153992,-1.766998c1.737701,-1.308472 2.739594,-1.93924 3.789337,-2.589325c1.086792,-0.673004 2.222198,-1.330688 3.390015,-1.97702c1.178864,-0.652435 2.371521,-1.284729 3.569977,-1.886993c2.336884,-1.174377 3.478516,-1.697021 4.588013,-2.194672c1.074982,-0.482147 2.125793,-0.928802 3.15451,-1.334991c0.996796,-0.393585 1.971039,-0.755951 2.929504,-1.065002c1.831696,-0.590637 2.728088,-0.809052 3.601318,-0.997345c0.847107,-0.182648 1.677979,-0.320496 2.48999,-0.395996c0.788483,-0.073303 1.562439,-0.104034 2.309998,-0.03598c1.448212,0.131836 2.137207,0.354675 2.796021,0.595978c0.648804,0.23764 1.261993,0.536041 1.831482,0.877502c0.554779,0.332642 1.06955,0.69696 1.51651,1.102509c0.832306,0.755157 1.138885,1.182129 1.398682,1.596008c0.248566,0.396027 0.438324,0.812378 0.563995,1.238983c0.125183,0.424957 0.197174,0.871674 0.203979,1.32901c0.014343,0.963287 -0.090973,1.474213 -0.194641,1.998657c-0.10733,0.542877 -0.252991,1.094543 -0.426025,1.65152c-0.176208,0.567169 -0.377411,1.134918 -0.605988,1.696503c-0.457611,1.124237 -0.727783,1.663513 -0.996002,2.198639c-0.267456,0.533569 -0.548737,1.059723 -0.83551,1.584015c-0.287903,0.526367 -0.585663,1.051544 -0.880493,1.584015c-0.904663,1.633759 -1.1987,2.197906 -1.494171,2.76416c-0.295197,0.565765 -0.86908,1.690186 -1.147339,2.242004c-0.2724,0.540192 -1.036865,2.065735 -1.269165,2.536499c-0.433563,0.878571 -0.829895,1.669891 -1.115997,2.399994c-0.359985,0.918671 -0.488647,1.931671 -0.398651,2.570648l0.545502,1.002686l0.538483,0.600006l0.430664,0.399994" id="svg_41" stroke-linecap="null" stroke-linejoin="null" stroke-dasharray="null" stroke-width="5" stroke="#ff0000" fill="none"/>
  <path d="m414,294c-4.406158,1.106842 -5.019501,1.414978 -5.649841,1.767822c-0.648499,0.363007 -1.290771,0.748047 -1.915497,1.14151c-0.602875,0.3797 -2.131012,1.389282 -2.758667,1.955994c-0.464661,0.419525 -0.905975,1.116241 -1.509338,1.968018c-0.56955,0.804047 -0.93631,1.242096 -1.303986,1.725311c-0.775879,1.019714 -1.171356,1.539337 -1.528015,2.077332c-0.99054,1.494141 -1.237213,1.976685 -1.579987,2.902679c-0.318848,0.861328 -0.424652,1.303162 -0.588013,2.627991c-0.112549,0.91272 -0.134064,1.847931 -0.145813,2.3125c-0.023041,0.910858 -0.040863,2.187866 -0.016846,2.948853c0.031921,1.010681 0.022247,1.687744 0.660828,2.650482c0.344482,0.519379 1.224762,1.135406 1.909851,1.520172c1.146576,0.643951 1.602844,0.806274 2.550659,1.244019c0.520599,0.240448 1.077515,0.498169 1.669495,0.78598c0.636139,0.309296 2.040497,1.034332 2.81134,1.456329c0.81192,0.444489 1.643921,0.91626 2.488495,1.39502c0.843079,0.477905 1.669067,0.949493 2.47049,1.394989c0.757355,0.421021 2.095398,1.138123 2.664001,1.395172c0.492462,0.222626 1.36084,0.562195 2.137512,0.48584c0.83786,-0.082367 1.803894,-0.581238 2.382843,-0.864166c0.644287,-0.31488 1.331177,-0.683136 2.038483,-1.114502c0.740936,-0.451843 1.484955,-0.95636 2.2005,-1.528503c0.723724,-0.578674 2.037354,-1.895721 2.582001,-2.634186c0.539825,-0.731964 0.994049,-1.514801 1.3815,-2.315979c0.3815,-0.788849 0.691498,-1.592163 0.949493,-2.388c0.249603,-0.769958 0.608643,-2.242065 0.734009,-2.924683c0.118073,-0.642975 0.200958,-1.2565 0.2565,-1.84198c0.053131,-0.559998 0.098572,-1.625946 0.104004,-2.138672c0.01593,-1.504913 0.003998,-2.002686 0.003998,-2.984009c0,-0.949341 0.010773,-1.850739 -0.000488,-3.078156c-0.006653,-0.724426 0.07489,-1.422699 -0.255524,-2.255188c-0.430115,-1.08371 -1.017273,-1.457977 -1.743164,-2.026337c-0.842743,-0.659851 -1.445709,-1.154938 -2.202148,-1.861664c-0.546326,-0.510406 -1.276917,-1.013123 -2.009338,-1.399994c-0.980194,-0.517731 -1.589691,-0.799255 -2.389343,-1.199982c-0.995941,-0.499084 -1.592163,-0.757477 -2.514648,-1.398682c-0.600403,-0.417328 -1.406006,-0.790894 -2.369354,-0.801331c-0.863251,-0.009338 -1.763336,0 -2.682648,0l-0.8125,0.020844" id="svg_42" stroke-linecap="null" stroke-linejoin="null" stroke-dasharray="null" stroke-width="5" stroke="#ff0000" fill="none"/>
  <path d="m439,296c-0.333344,8.333344 -0.440704,10.383301 -0.570679,12.691986c-0.141144,2.506989 -0.296814,5.15097 -0.470978,7.870514c-0.17514,2.735138 -0.352722,5.424805 -0.561005,8.005493c-0.371307,4.60083 -0.582184,6.509216 -0.794678,8.14801c-0.181061,1.396332 -0.367554,2.567993 -0.561005,3.533997c-0.158417,0.790985 -0.313019,1.423737 -0.470978,1.914001c-0.217773,0.675964 -0.312592,0.8927 -0.400024,1.026672c-0.048553,0.074371 -0.108185,0.064148 -0.128998,-0.024017c-0.038269,-0.162109 -0.035339,-0.412628 -0.039001,-0.743988c-0.010162,-0.922607 -0.003326,-1.516327 -0.001312,-2.192017c0.002228,-0.749664 0.007233,-1.565338 0.019501,-2.438995c0.01297,-0.923676 0.030762,-1.889496 0.064484,-2.888977c0.069824,-2.069763 0.130371,-3.123566 0.202667,-4.180023c0.072083,-1.053253 0.160431,-2.095612 0.274506,-3.1185c0.111481,-0.999817 0.235687,-1.969299 0.409485,-2.893494c0.32312,-1.718292 0.554932,-2.486908 0.800018,-3.197327c0.231598,-0.671295 0.497284,-1.293304 0.790497,-1.867493c0.282135,-0.552521 0.591064,-1.07016 0.925507,-1.552521c0.654449,-0.943909 1.028992,-1.375 1.394653,-1.805328c0.36142,-0.425323 0.729553,-0.832947 1.096497,-1.225494c0.357117,-0.38205 0.709747,-0.744873 1.051514,-1.090515c0.633698,-0.6409 0.925385,-0.929932 1.199982,-1.199982c0.258484,-0.254211 0.505341,-0.49234 0.748505,-0.709503c0.232971,-0.208069 0.46347,-0.40387 0.703522,-0.574493c0.473511,-0.336578 0.736816,-0.470612 1.002655,-0.604004c0.269836,-0.135376 0.550262,-0.259583 0.83551,-0.384003c0.289429,-0.126251 0.585297,-0.249023 0.880493,-0.384003c0.602081,-0.275299 0.89978,-0.435852 1.201324,-0.600006c0.307159,-0.167206 0.612122,-0.353851 1.269348,-0.690643c0.692017,-0.354645 1.864624,-0.823242 2.724335,-1.06369c0.85675,-0.239624 1.275208,-0.346771 2.737,-0.595001c0.739929,-0.125641 1.546661,-0.165985 2.492004,-0.166656c1.007996,-0.000702 1.835999,0 2.717651,0c0.729004,0 1.56601,0 2.756836,0l0.595673,0l0.8685,0" id="svg_43" stroke-linecap="null" stroke-linejoin="null" stroke-dasharray="null" stroke-width="5" stroke="#ff0000" fill="none"/>
  <path d="m474,314c0.610657,1.600006 1.169037,2.246246 1.87149,2.757172c0.854919,0.621826 1.5177,0.914429 2.295166,1.284485c0.442688,0.210724 1.459534,0.656464 2.666687,1.125c0.671722,0.260712 1.391235,0.520721 2.152496,0.777008c0.792053,0.266663 1.615784,0.523651 2.467499,0.759003c0.866699,0.239502 1.745605,0.484253 3.546661,0.797333c0.897156,0.155945 1.802917,0.255005 2.713501,0.319489c0.917603,0.064972 1.84906,0.088135 2.794495,0.076508c0.963715,-0.011841 1.950195,-0.044617 3.992004,-0.22934c1.064148,-0.096283 2.143921,-0.229675 3.226501,-0.385498c1.076141,-0.154907 2.129974,-0.33197 3.145508,-0.538483c0.972168,-0.197693 1.898956,-0.368103 3.461334,-0.909332c0.661285,-0.229065 1.226593,-0.499512 1.694977,-0.7995c0.424622,-0.271973 0.778748,-0.582489 1.065002,-0.916504c0.277222,-0.323486 0.51004,-0.680511 0.906677,-1.450684c0.208496,-0.404877 0.40332,-0.832062 0.591003,-1.272003c0.379456,-0.889557 0.566956,-1.33432 0.838318,-2.226654c0.368896,-1.213043 0.493347,-1.946289 0.549316,-2.910675c0.063232,-1.08905 0.131104,-1.811493 -0.035828,-2.595673c-0.227661,-1.069397 -0.90625,-1.702972 -1.578796,-2.261658c-0.652771,-0.542267 -1.397797,-0.917542 -2.05069,-1.199982c-0.990082,-0.428284 -1.876587,-0.718719 -2.532166,-0.957184c-1.115814,-0.405853 -1.950378,-0.727173 -2.390991,-0.895508c-0.910767,-0.347992 -1.840332,-0.699341 -2.307495,-0.863312c-1.356445,-0.476074 -2.221252,-0.739197 -3.061829,-0.942352c-0.812561,-0.196381 -1.215302,-0.289185 -2.421021,-0.420166c-0.802185,-0.087128 -1.620575,-0.107391 -2.457001,-0.117004c-1.309387,-0.015045 -2.225769,-0.012878 -3.157501,0.016846c-0.464691,0.014832 -1.393158,0.007416 -2.651978,0.312012c-0.7771,0.188019 -1.484009,0.525269 -2.112,0.959991c-0.643829,0.445709 -1.531586,1.341248 -2.130341,2.029999c-0.317688,0.365417 -0.963348,1.169769 -1.305328,1.600006c-1.120087,1.409149 -1.529022,1.918976 -1.952332,2.447327c-0.435028,0.542969 -0.877319,1.098297 -1.3125,1.67099c-0.438171,0.57666 -1.298676,1.741974 -2.020844,2.958344c-0.351044,0.591278 -0.653351,1.197571 -0.933014,1.804504c-0.277649,0.602539 -0.77301,1.830719 -1.010651,2.452667c-0.239716,0.627411 -0.721161,1.910187 -0.977509,2.563995c-0.259644,0.662231 -0.7948,1.992981 -1.057983,2.65799c-0.260803,0.658997 -0.517456,1.308624 -0.751495,1.951508c-0.448364,1.231567 -0.809875,2.39624 -0.941528,2.959503c-0.253052,1.08255 -0.354187,1.622284 -0.369141,2.692505c-0.015167,1.084656 0.070587,1.645569 0.317322,2.760986c0.124878,0.564575 0.481873,1.662994 0.694672,2.189331c0.208801,0.516418 0.921661,1.924255 1.504486,2.704498c0.289093,0.387024 0.969299,1.113525 1.358002,1.463348c1.300415,1.170349 1.850006,1.544678 2.404175,1.96582c0.575439,0.437317 1.172638,0.87616 1.783508,1.3125c0.611816,0.437012 1.210114,0.88208 2.979156,2.020844c0.53241,0.342712 1.040222,0.674835 2.088013,1.191986c0.52948,0.261322 1.099884,0.487762 1.712982,0.694519c0.658844,0.222198 2.197266,0.621429 3.090851,0.813171c0.961029,0.206207 1.976776,0.396332 3.025482,0.578979c1.060944,0.184753 2.118103,0.353149 3.15152,0.507019c0.989258,0.147308 2.763702,0.387878 3.516144,0.47049c0.661041,0.072571 1.243347,0.106995 1.755005,0.1185l0.45166,-0.020508l0.401672,-0.055481l0.693329,-0.227997" id="svg_44" stroke-linecap="null" stroke-linejoin="null" stroke-dasharray="null" stroke-width="5" stroke="#ff0000" fill="none"/>
  <path d="m533,342c-1.295471,2.009827 -1.61261,2.774048 -1.833313,3.833344c-0.146606,0.703491 -0.146545,1.581879 -0.452026,2.56665c-0.190979,0.615631 -0.714661,1.600006 -1.104004,2.389343l-0.325317,0.725342" id="svg_45" stroke-linecap="null" stroke-linejoin="null" stroke-dasharray="null" stroke-width="5" stroke="#ff0000" fill="none"/>
  <path d="m552,281c-1,4.666656 -1.325867,5.970154 -1.706665,7.449341c-0.415649,1.614532 -0.86261,3.319733 -1.335022,5.071503c-0.474304,1.758911 -0.943909,3.481354 -1.424988,5.116486c-0.844238,2.869354 -1.233093,4.017548 -1.594666,4.978668c-0.306702,0.815247 -0.604004,1.497955 -0.896973,2.071503c-0.260498,0.509979 -0.537659,0.961243 -0.807007,1.396515c-0.5672,0.916504 -0.880981,1.442535 -1.204041,2.023987c-0.344177,0.619446 -0.693115,1.275391 -1.051453,1.954498c-0.365662,0.692902 -0.729248,1.393921 -1.096497,2.089508c-0.712585,1.349792 -1.059937,1.983826 -1.394714,2.590668c-0.320984,0.581818 -0.632202,1.137787 -0.925476,1.673981c-0.281372,0.514496 -0.550903,1.009003 -0.790527,1.494019c-0.452515,0.915955 -0.63446,1.365143 -0.799988,1.799988c-0.158569,0.416626 -0.293579,0.820038 -0.409485,1.205994c-0.109192,0.363495 -0.2005,0.70636 -0.274475,1.026001c-0.128601,0.555725 -0.208191,0.788116 -0.267212,1.494843c-0.071777,0.859741 -0.020813,1.762512 -0.020813,2.662506l0,0.899994l0,0.799988" id="svg_48" stroke-linecap="null" stroke-linejoin="null" stroke-dasharray="null" stroke-width="5" stroke="#ff0000" fill="none"/>
 </g>
</svg>